<?xml version="1.0" encoding="UTF-8"?>
<svg version="1.1" xmlns="http://www.w3.org/2000/svg" width="152" height="129">
<path d="M0 0 C0 0.66 0 1.32 0 2 C4.06033552 2.24859197 6.67283079 2.14276474 10.4375 0.5 C15.7701115 -1.7453101 19.8757451 -1.34139811 25.5 -0.4375 C31.8768795 2.18157551 36.47752316 6.22613604 39.4375 12.5 C40.92757975 16.32694491 41.65248664 19.91671804 42 24 C42.61746094 23.93039063 43.23492187 23.86078125 43.87109375 23.7890625 C50.05479067 23.39375767 54.04475009 24.27465078 59.015625 28.046875 C64.36143505 33.30849907 66.2755058 38.95815937 66.375 46.375 C66.25588298 49.84771917 65.85078227 52.59687091 65 56 C62.03 56 59.06 56 56 56 C55.75765625 55.31292969 55.5153125 54.62585938 55.265625 53.91796875 C54.76289063 52.56638672 54.76289063 52.56638672 54.25 51.1875 C53.92515625 50.29417969 53.6003125 49.40085938 53.265625 48.48046875 C51.82511262 45.65724232 50.77723601 44.50764241 48 43 C45.41118198 42.63965477 45.41118198 42.63965477 42.75 42.8125 C41.85796875 42.83957031 40.9659375 42.86664063 40.046875 42.89453125 C39.03367188 42.94673828 39.03367188 42.94673828 38 43 C37.62488281 42.26394531 37.24976562 41.52789062 36.86328125 40.76953125 C32.48311372 32.41742339 28.23129842 26.11036541 19 23 C12.40710767 21.84068146 6.58572286 23.39124647 1 27 C-1.30790797 29.13220304 -3.32594352 31.33463948 -5 34 C-5 34.66 -5 35.32 -5 36 C-15.89 36 -26.78 36 -38 36 C-36.89159811 29.34958867 -35.39358612 26.10863539 -30.375 21.6875 C-26.49476319 18.93048964 -24.25951382 18.8644701 -19.5 18.875 C-18.3346875 18.87242188 -17.169375 18.86984375 -15.96875 18.8671875 C-13 19 -13 19 -11 20 C-11 19.01 -11 18.02 -11 17 C-16.94 16.01 -16.94 16.01 -23 15 C-21.61431223 8.07156114 -18.80153775 4.01644921 -13 0 C-8.52745503 -1.49084832 -4.47254497 -1.49084832 0 0 Z " fill="#76A0B4" transform="translate(49,48)"/>
<path d="M0 0 C5.22647256 3.43484201 8.62742657 7.00991609 9.92578125 13.265625 C11.27138452 23.22881518 11.27138452 23.22881518 9.92578125 27.265625 C-16.80421875 27.265625 -43.53421875 27.265625 -71.07421875 27.265625 C-69.94709252 18.24861515 -69.94709252 18.24861515 -66.63671875 14.828125 C-66.01925781 14.16941406 -65.40179688 13.51070312 -64.765625 12.83203125 C-61.43836889 9.75066935 -58.6368116 10.09020031 -54.203125 9.984375 C-53.52499252 9.96596558 -52.84686005 9.94755615 -52.1481781 9.92858887 C-49.97778031 9.86980424 -47.8073035 9.817014 -45.63671875 9.765625 C-42.78368973 9.69791421 -39.93090747 9.62421106 -37.078125 9.546875 C-35.80783447 9.51658203 -34.53754395 9.48628906 -33.22875977 9.45507812 C-29.816623 9.2501545 -27.83663241 9.10729949 -25.49609375 6.5234375 C-24.66851562 5.46769531 -24.66851562 5.46769531 -23.82421875 4.390625 C-17.24958055 -3.31661894 -9.01246387 -4.96998008 0 0 Z " fill="#6995A9" transform="translate(73.07421875,76.734375)"/>
<path d="M0 0 C9.07834065 5.11405205 14.34402006 12.40471648 17.15771484 22.390625 C19.06882632 31.01758588 18.64750645 41.62259154 14.625 49.5 C13.305 49.17 11.985 48.84 10.625 48.5 C10.76808594 46.83324219 10.76808594 46.83324219 10.9140625 45.1328125 C11.8475299 33.17797353 12.16951765 22.56577227 4.625 12.5 C-0.76652173 6.77763489 -6.69252694 5.166044 -14.375 4.5 C-16.04150815 4.47701368 -17.70860381 4.46997484 -19.375 4.5 C-19.705 5.16 -20.035 5.82 -20.375 6.5 C-21.58495521 7.08331969 -22.81864157 7.61797961 -24.0625 8.125 C-31.96904493 11.95804772 -35.29073809 19.6623462 -38.375 27.5 C-39.695 26.51 -41.015 25.52 -42.375 24.5 C-42.20001267 16.62557016 -37.96057828 9.97330968 -32.37890625 4.56640625 C-22.52748735 -3.13421554 -11.61199119 -5.3470524 0 0 Z " fill="#83A9B8" transform="translate(93.375,21.5)"/>
<path d="M0 0 C6.76592153 3.18396307 10.49715646 9.25642861 13.375 15.9375 C16.22551651 24.47712267 16.6564108 35.57492647 13.5 44.0625 C13.005 45.031875 12.51 46.00125 12 47 C10.68 46.67 9.36 46.34 8 46 C8.14308594 44.33324219 8.14308594 44.33324219 8.2890625 42.6328125 C9.2441533 30.40104444 9.25354865 20.46818953 2 10 C0.41857849 8.16073803 -1.17878387 6.61307714 -3 5 C-2.01 3.35 -1.02 1.7 0 0 Z " fill="#779BAA" transform="translate(96,24)"/>
<path d="M0 0 C9.91475927 -0.78137332 9.91475927 -0.78137332 14.125 2.25 C16.79787234 6.17021277 16.79787234 6.17021277 17 9 C16 10 16 10 13.05859375 10.09765625 C11.26615234 10.08025391 11.26615234 10.08025391 9.4375 10.0625 C7.64119141 10.04896484 7.64119141 10.04896484 5.80859375 10.03515625 C4.88175781 10.02355469 3.95492187 10.01195313 3 10 C2.8046875 7.98177083 2.609375 5.96354167 2.4140625 3.9453125 C2.13625251 1.77331755 2.13625251 1.77331755 0 0 Z " fill="#4C6E7F" transform="translate(84,94)"/>
<path d="M0 0 C-0.49938749 3.69546741 -1.00415112 5.69961604 -4 8 C-6.26171875 8.29296875 -6.26171875 8.29296875 -8.6875 8.1875 C-9.89986328 8.14689453 -9.89986328 8.14689453 -11.13671875 8.10546875 C-11.75160156 8.07066406 -12.36648437 8.03585938 -13 8 C-13.33 6.35 -13.66 4.7 -14 3 C-8.85974186 -0.28405381 -5.99541813 -1.49885453 0 0 Z " fill="#56727E" transform="translate(127,39)"/>
<path d="M0 0 C3.2380264 2.22036096 5.43737334 4.98465939 7.1875 8.5 C7 11.4375 7 11.4375 6.1875 13.5 C5.1975 13.5 4.2075 13.5 3.1875 13.5 C1.36328125 11.41796875 1.36328125 11.41796875 -0.5 8.6875 C-1.12261719 7.79417969 -1.74523438 6.90085937 -2.38671875 5.98046875 C-3.8125 3.5 -3.8125 3.5 -3.8125 0.5 C-1.8125 -0.5 -1.8125 -0.5 0 0 Z " fill="#7595A4" transform="translate(50.8125,14.5)"/>
<path d="M0 0 C1.32 0.33 2.64 0.66 4 1 C3.54417083 5.86217784 1.2986558 10.41682402 -2 14 C-3.32 14 -4.64 14 -6 14 C-6.36539443 9.71422781 -5.48423598 7.65507938 -3 4.1875 C-2.1646875 3.00220703 -2.1646875 3.00220703 -1.3125 1.79296875 C-0.879375 1.20128906 -0.44625 0.60960937 0 0 Z " fill="#7596A5" transform="translate(106,10)"/>
<path d="M0 0 C0.99 0 1.98 0 3 0 C4.38226016 2.76452033 4.09525387 5.0461363 4.0625 8.125 C4.05347656 9.22070312 4.04445313 10.31640625 4.03515625 11.4453125 C4.02355469 12.28835938 4.01195313 13.13140625 4 14 C2.35 14.33 0.7 14.66 -1 15 C-1.02685412 12.68756208 -1.04632841 10.3750373 -1.0625 8.0625 C-1.07410156 6.77472656 -1.08570312 5.48695312 -1.09765625 4.16015625 C-1 1 -1 1 0 0 Z " fill="#799DAD" transform="translate(77,0)"/>
<path d="M0 0 C1.46080933 0.61919078 2.91857455 1.24556692 4.375 1.875 C5.18710938 2.22304687 5.99921875 2.57109375 6.8359375 2.9296875 C9 4 9 4 11 6 C11 7.32 11 8.64 11 10 C6.14036821 9.39254603 2.2594482 7.27241033 -2 5 C-1.34 3.35 -0.68 1.7 0 0 Z " fill="#7197A8" transform="translate(114,68)"/>
<path d="M0 0 C0.53625 0.495 1.0725 0.99 1.625 1.5 C0.965 2.16 0.305 2.82 -0.375 3.5 C-1.035 3.17 -1.695 2.84 -2.375 2.5 C-4.08202735 2.43003986 -5.79168003 2.41559846 -7.5 2.4375 C-8.41007812 2.44652344 -9.32015625 2.45554687 -10.2578125 2.46484375 C-11.30582031 2.48224609 -11.30582031 2.48224609 -12.375 2.5 C-12.705 1.51 -13.035 0.52 -13.375 -0.5 C-4.20714286 -2.65714286 -4.20714286 -2.65714286 0 0 Z " fill="#4C6A78" transform="translate(99.375,88.5)"/>
<path d="M0 0 C1.65 0.33 3.3 0.66 5 1 C4.67 2.65 4.34 4.3 4 6 C1.36 6 -1.28 6 -4 6 C-3.67 5.01 -3.34 4.02 -3 3 C-2.01 3 -1.02 3 0 3 C0 2.01 0 1.02 0 0 Z " fill="#78A0AE" transform="translate(122,38)"/>
<path d="M0 0 C-3.86329714 2.57553142 -7.84355437 4.92177718 -12 7 C-11.67 5.68 -11.34 4.36 -11 3 C-10.34 3 -9.68 3 -9 3 C-8.67 2.01 -8.34 1.02 -8 0 C-5.13822943 -1.43088528 -3.06624227 -0.59991697 0 0 Z " fill="#53707C" transform="translate(59,70)"/>
<path d="M0 0 C1.98 0.66 3.96 1.32 6 2 C4.25 4.0625 4.25 4.0625 2 6 C-0.25 5.75 -0.25 5.75 -2 5 C-1.34 3.35 -0.68 1.7 0 0 Z " fill="#5B7E8F" transform="translate(114,68)"/>
<path d="M0 0 C1.65 0 3.3 0 5 0 C4.67 1.65 4.34 3.3 4 5 C3.01 5 2.02 5 1 5 C0.67 3.35 0.34 1.7 0 0 Z " fill="#6D8B97" transform="translate(53,23)"/>
<path d="M0 0 C5.94 0 11.88 0 18 0 C18 0.33 18 0.66 18 1 C12.06 1 6.12 1 0 1 C0 0.67 0 0.34 0 0 Z " fill="#000000" transform="translate(13,84)"/>
<path d="M0 0 C2.475 0.99 2.475 0.99 5 2 C5 3.32 5 4.64 5 6 C2.53199953 4.84826645 0.95216435 3.95216435 -1 2 C-0.67 1.34 -0.34 0.68 0 0 Z " fill="#61818F" transform="translate(74,70)"/>
<path d="M0 0 C0 0.33 0 0.66 0 1 C-1.65 1 -3.3 1 -5 1 C-5.33 1.66 -5.66 2.32 -6 3 C-8.0625 3.625 -8.0625 3.625 -10 4 C-10 3.01 -10 2.02 -10 1 C-6.78548731 -0.60725635 -3.56387464 -0.05748185 0 0 Z " fill="#445A61" transform="translate(79,25)"/>
<path d="M0 0 C1.98 0 3.96 0 6 0 C6 0.33 6 0.66 6 1 C4.02 1 2.04 1 0 1 C0 0.67 0 0.34 0 0 Z " fill="#000000" transform="translate(59,71)"/>
<path d="M0 0 C2 1 2 1 2 1 Z " fill="#000000" transform="translate(36,84)"/>
<path d="M0 0 C2 1 2 1 2 1 Z " fill="#000000" transform="translate(33,84)"/>
<path d="" fill="#000000" transform="translate(0,0)"/>
<path d="" fill="#000000" transform="translate(0,0)"/>
</svg>
